[img]http://img534.imageshack.us/img534/4872/valkyrie320x200.jpg[/img]
 
http://www.imdb.com/title/tt0985699/

Source: Valkyrie.2008.720p.BluRay.DTS.x264-DON

Subs: Dutch, English.

Sample and Screens included.


General
Complete name                    : Valkyrie 2008-720p MP4 AAC BRRip-CC.mp4
Format                           : MPEG-4
Format profile                   : Base Media
Codec ID                         : isom
File size                        : 1.81 GiB
Duration                         : 2h 0mn
Overall bit rate                 : 2 156 Kbps
Encoded date                     : UTC 2011-11-18 06:39:57
Tagged date                      : UTC 2011-11-18 06:39:57
Writing application              : Yamb 2.1.0.0 

Video
ID                               : 1
Format                           : AVC
Format/Info                      : Advanced Video Codec
Format profile                   : Main@L3.1
Format settings, CABAC           : Yes
Format settings, ReFrames        : 1 frame
Codec ID                         : avc1
Codec ID/Info                    : Advanced Video Coding
Duration                         : 2h 0mn
Bit rate mode                    : Variable
Bit rate                         : 1 786 Kbps
Nominal bit rate                 : 1 807 Kbps
Maximum bit rate                 : 5 864 Kbps
Width                            : 1 280 pixels
Height                           : 692 pixels
Display aspect ratio             : 1.850
Frame rate mode                  : Variable
Frame rate                       : 23.976 fps
Minimum frame rate               : 23.810 fps
Maximum frame rate               : 24.390 fps
Resolution                       : 8 bits
Colorimetry                      : 4:2:0
Scan type                        : Progressive
Bits/(Pixel*Frame)               : 0.084
Stream size                      : 1.50 GiB (83%)
Writing library                  : x264 core 65
Encoding settings                : cabac=1 / ref=1 / deblock=1:0:0 / analyse=0x1:0x111 / me=hex / subme=6 / psy_rd=1.0:0.0 / mixed_ref=0 / me_range=16 / chroma_me=1 / trellis=0 / 8x8dct=0 / cqm=0 / deadzone=21,11 / chroma_qp_offset=-2 / threads=3 / nr=0 / decimate=1 / mbaff=0 / bframes=0 / keyint=240 / keyint_min=24 / scenecut=40(pre) / rc=abr / bitrate=1807 / ratetol=1.0 / qcomp=0.60 / qpmin=10 / qpmax=51 / qpstep=4 / ip_ratio=1.40 / aq=1:1.00
Encoded date                     : UTC 2011-11-18 23:10:39
Tagged date                      : UTC 2011-11-18 06:42:45
Color primaries                  : BT.709-5, BT.1361, IEC 61966-2-4, SMPTE RP177
Transfer characteristics         : BT.709-5, BT.1361
Matrix coefficients              : BT.709-5, BT.1361, IEC 61966-2-4 709, SMPTE RP177

Audio
ID                               : 2
Format                           : AAC
Format/Info                      : Advanced Audio Codec
Format version                   : Version 4
Format profile                   : LC
Format settings, SBR             : No
Codec ID                         : 40
Duration                         : 2h 0mn
Bit rate mode                    : Variable
Bit rate                         : 367 Kbps
Maximum bit rate                 : 628 Kbps
Channel(s)                       : 6 channels
Channel positions                : Front: L C R, Rear: L R, LFE
Sampling rate                    : 48.0 KHz
Stream size                      : 316 MiB (17%)
Language                         : English
Encoded date                     : UTC 2011-11-18 06:42:08
Tagged date                      : UTC 2011-11-18 06:42:45

Enjoy...

[img]http://img196.imageshack.us/img196/6281/valkyrie2008720pmp4aacb.jpg[/img]